<?xml version="1.0" encoding="UTF-8" standalone="no"?>
<svg
   xmlns:dc="http://purl.org/dc/elements/1.1/"
   xmlns:cc="http://creativecommons.org/ns#"
   xmlns:rdf="http://www.w3.org/1999/02/22-rdf-syntax-ns#"
   xmlns:svg="http://www.w3.org/2000/svg"
   xmlns="http://www.w3.org/2000/svg"
   xmlns:sodipodi="http://sodipodi.sourceforge.net/DTD/sodipodi-0.dtd"
   xmlns:inkscape="http://www.inkscape.org/namespaces/inkscape"
   width="1770"
   height="943.79999"
   version="1.1"
   id="svg14"
   sodipodi:docname="EmuLogo.svg"
   inkscape:version="1.0.1 (3bc2e813f5, 2020-09-07)"
   inkscape:export-filename="/home/mzal/EmuLogo.png"
   inkscape:export-xdpi="96"
   inkscape:export-ydpi="96">
  <sodipodi:namedview
     pagecolor="#ffffff"
     bordercolor="#666666"
     borderopacity="1"
     objecttolerance="10"
     gridtolerance="10"
     guidetolerance="10"
     inkscape:pageopacity="0"
     inkscape:pageshadow="2"
     inkscape:window-width="1920"
     inkscape:window-height="1025"
     id="namedview16"
     showgrid="false"
     inkscape:zoom="0.83271144"
     inkscape:cx="804"
     inkscape:cy="471.89999"
     inkscape:window-x="0"
     inkscape:window-y="27"
     inkscape:window-maximized="1"
     inkscape:current-layer="g12"
     inkscape:document-rotation="0"
     units="mm" />
  <metadata
     id="metadata20">
    <rdf:RDF>
      <cc:Work
         rdf:about="">
        <dc:format>image/svg+xml</dc:format>
        <dc:type
           rdf:resource="http://purl.org/dc/dcmitype/StillImage" />
        <dc:title></dc:title>
      </cc:Work>
    </rdf:RDF>
  </metadata>
  <defs
     id="defs18" />
  <!-- Created with Method Draw - http://github.com/duopixel/Method-Draw/ -->
  <g
     id="g5">
    <title
       id="title2">background</title>
    <path
       id="canvas_background"
       style="opacity:0;fill:#ffffff"
       d="M -1,-1 H 1609 V 944.79999 H -1 Z" />
  </g>
  <g
     id="g12">
    <title
       id="title7">Layer 1</title>
    <path
       id="svg_1"
       d="m 1495.5672,522.91093 c 2.5,-4.4 6.1,-1 6.1,-1 3,6.6 4,2 4,2 -1.5,5.6 5.6,10.6 5.6,10.6 -1,-2.5 3,-6.6 3,-6.6 -1.5,4.6 2.5,9.1 2.5,9.1 0,-4 12.1,-9.6 12.1,-9.6 0.5,8.1 8.6,-3.5 8.6,-3.5 0.5,10.6 10.6,-2 10.6,-2 -3.5,12.7 10.1,-4.6 10.1,-4.6 -0.5,4 8.1,-4 8.1,-4 1,3 6.6,-2 6.6,-2 0.5,4 9.1,-4 9.1,-4 l -1.5,5.6 c 11.6,-3.5 15.2,-13.2 15.2,-13.2 l 0.5,8.1 c 8.6,-3.5 11.1,-15.7 11.1,-15.7 2,5.1 -0.8,9.7 -0.8,9.7 8.6,-1.9 10.4,-9.7 10.4,-9.7 7.5,0 8.2,-14.9 8.2,-14.9 8.2,10.4 13.4,-11.2 13.4,-11.2 l 2.2,11.9 c 8.9,-7.5 12.7,-29.1 12.7,-29.1 l 3,11.2 c 3.7,-4.5 4.5,-20.9 4.5,-20.9 l 0.7,8.2 c 10.4,-8.2 11.2,-24.6 11.2,-24.6 l 2.2,5.2 c 5.2,-6 3.7,-23.1 3.7,-23.1 l 3.7,6.7 c 5.2,-7.5 6,-41.7 6,-41.7 l 3.7,14.9 c 6.7,-20.1 -3.7,-55.9 -3.7,-55.9 l 6.7,8.9 c 2.2,-8.2 -11.9,-29.1 -11.9,-29.1 -6.7,-11.9 -4.5,-36.5 -4.5,-36.5 6,-41.7 -6.5,-70.3 -6.5,-70.3 -11.2,-20.1 -18.9,-60.9 -18.9,-60.9 -3.5,-45 14.2,-46.7 14.2,-46.7 7.6,0 30.4,-14.2 30.4,-14.2 8.6,-6.6 31.9,-5.1 31.9,-5.1 13.2,5.6 27.8,1.5 27.8,1.5 4.6,3.5 7.6,3.5 7.6,3.5 4,-21.3 -50.1,-31.4 -50.1,-31.4 0,0 -0.5,-22.8 -27.8,-31.9 0,0 -9.1,-3 -10.6,-7.6 0,0 -3.5,1 -2.5,4.6 0,0 -10.1,-8.1 -17.2,-8.6 0,0 4.6,2 1.5,5.1 0,0 -8.6,-1 -11.1,-8.1 0,0 -3,4 0,7.6 0,0 -9.1,-4.6 -9.1,-7.6 0,0 -3.5,7.6 0,8.1 0,0 -8.6,-2 -8.6,-5.6 0,0 -3.5,6.6 0,8.1 0,0 -7.6,-4 -8.1,-6.6 0,0 -3.5,8.1 0,10.1 l -6.6,-5.6 c 0,0 0,8.6 3.5,10.1 l -6.1,-2 c 0,0 0.5,7.6 3.5,9.1 l -5.6,-2 c 0,0 -2,10.1 1,10.6 0,0 -5.1,-6.6 -3.6,5.3 0,0 -4,-6.9 -3.4,6.3 0,0 -31.4,43.3 -4,115.6 0,0 -6.1,17 -14.2,23.5 h 5 c 0,0 -19.7,10.6 -16.2,21.8 0,0 4,-5.5 6.1,-5.5 0,0 -12.7,14.9 -10.6,20 0,0 5.1,-3.7 7.6,-3.2 0,0 -7.5,1.5 -7.8,10.6 l 5.3,-2.1 c 0,0 -9.6,13.7 -7.6,19.7 l 5.1,-5.1 c 0,0 -6.6,14.7 -5.3,18.7 l 4.3,-3.5 c 0,0 -4.6,14.2 -11.1,16.2 0,0 6.6,0 9.6,-2.5 0,0 -14.7,13.7 -9.6,14.7 5.1,1 -26.8,7.1 -18.2,10.6 0,0 -31.9,-4 -60.7,-18.2 0,0 -127,-71.4 -236.4,-41.5 0,0 -72.9,25.8 -68.8,32.4 0,0 -97.2,66.8 -86,82 0,0 -55.7,64.3 -68.8,110.8 0,0 -23.3,36.9 -14.7,51.1 0,0 -10.6,43 0.5,52.1 0,0 8.6,33.4 15.2,30.9 0,0 15.2,27.8 19.7,18.7 0,0 9.1,14.2 13.7,12.1 0,0 -0.5,-8.6 6.6,-2.5 0,0 8.6,7.6 8.1,-2 0,0 7.1,11.6 8.1,-4.6 0,0 3,3.5 6.1,0.5 0,0 5.1,17.2 8.1,0.5 0,0 3,11.6 9.1,1 0,0 1,8.6 9.1,-6.1 0,0 3,12.7 8.6,-2 0,0 1.5,22.3 15.2,-8.1 0,0 -1,13.7 8.1,2 0,0 5.6,7.6 9.6,-4.6 0,0 -4,20.2 19.2,-5.6 0,0 2,8.1 11.1,-6.6 0,0 4.6,6.1 11.1,-8.6 0,0 3,11.6 7.6,-2.5 0,0 4.6,5.1 8.6,-6.6 0,0 4.6,9.1 10.1,-3.5 0,0 3,13.2 13.7,-9.6 0,0 2.5,11.6 9.6,-3.5 0,0 1,4.6 9.1,-5.1 0,0 6.1,-0.5 1,8.1 0,0 3,2.5 5.1,0 0,0 -8.6,9.1 -6.6,13.2 0,0 3.5,-4.6 7.1,-3.5 0,0 -10.6,12.7 -4.6,11.6 0,0 -7.1,14.7 -0.5,11.6 0,0 -1.5,22.3 -7.1,27.3 0,0 -13.2,9.6 -4.6,32.4 0,0 -5.9,25.1 2.2,40.3 0,0 5.9,51.8 5.3,59.9 0,0 1.5,97.2 -2,112.4 0,0 -7.6,29.4 9.1,38 0,0 5.1,21.3 23.8,24.3 0,0 6.6,8.6 10.6,6.6 0,0 3.5,4.6 1.5,7.6 0,0 8.1,1 5.6,-15.2 0,0 -0.5,-9.6 -9.1,-12.7 0,0 -13.2,-7.6 -9.6,-10.1 0,0 3,-1.5 15.2,5.1 0,0 10.6,5.6 22.3,0.5 0,0 14.2,10.6 27.3,0.5 0,0 5.6,-3.5 11.6,2 0,0 2.5,-14.2 -14.7,-13.2 0,0 -10.6,-3 -22.3,-3.5 0,0 -4.6,-5.9 4,-5.9 l 9.1,1.3 c 0,0 2,-7.6 -12.1,-7.1 0,0 -2.5,-4.6 -14.7,-0.5 0,0 -6.1,1.5 -13.2,-1 0,0 -5.1,-4 -8.1,-3 0,0 -2.5,-12.7 -6.6,-14.7 0,0 -7.1,-109.3 -3,-134.6 l 1,-23.3 c 0,0 9.1,-19.7 5.6,-25.3 0,0 10.6,-22.8 5.6,-40.5 0,0 -1.5,-6.6 1.5,-9.6 0,0 0.5,5.1 3.5,6.1 0,0 0.5,-12.1 1.5,-17.2 0,0 1.5,3.5 4,4 0,0 -0.5,-15.2 2.5,-22.8 0,0 -1,5.6 2,8.1 0,0 4,-17.7 7.6,-21.3 0,0 -2,8.1 1.5,10.1 0,0 4.6,-19.7 9.1,-25.8 0,0 2.5,5.1 8.1,-8.1 0,0 6.1,1.5 8.1,-8.1 0,0 11,3.7 14.7,15.3 0.2,0.6 0.4,1.2 0.5,1.9 3,13.2 3.5,35.4 0.5,45 0,0 -13.2,12.1 -5.6,29.9 0,0 3.5,27.8 8.6,32.4 l 10.4,44.2 c 0,0 17.2,95.7 16.2,111.2 0,0 -2.7,30.2 15.1,36 0,0 8.4,20.2 27.4,20.1 0,0 7.9,7.4 11.6,4.8 0,0 4.2,3.9 2.7,7.2 0,0 8.2,-0.3 3,-15.9 0,0 -2.1,-9.4 -11,-11 0,0 -14.2,-5.4 -11.1,-8.4 0,0 2.8,-2 15.8,2.5 0,0 11.4,3.8 22.1,-3.1 0,0 15.7,8.2 27.1,-3.9 0,0 4.9,-4.4 11.8,0.1 0,0 0.2,-14.4 -16.6,-10.6 0,0 -11,-1.3 -22.6,0.1 0,0 -5.4,-5 3,-6.4 l 9.2,-0.2 c 0,0 0.8,-7.8 -13.1,-5 0,0 -3.2,-4.1 -14.6,1.9 0,0 -5.7,2.5 -13.2,1.1 0,0 -5.6,-3.2 -8.5,-1.7 0,0 -4.5,-12.1 -8.9,-13.4 0,0 -24.7,-106.7 -24.8,-132.4 0,0 -0.2,-25.3 1.3,-31.9 0,0 5.6,-25.3 2.5,-37.5 0,0 1.1,-8.1 3.3,-13.2 0,0 2.3,-0.5 3.3,-11.6 0,0 4.2,2 5.9,-12.1 0,0 5.8,-5.1 8.8,-20.2 0,0 2,6.6 5.6,-12.1 0,0 7.1,-8.6 8.1,-11.6 l 7.1,-4.6 c 0,4 6.1,0.3 6.1,0.3 0,6.4 8.6,-3.3 8.6,-3.3 0,9.6 15.2,-4.6 15.2,-4.6 4.6,3 11.6,-5.6 11.6,-5.6 0,4 8.1,-4.6 8.1,-4.6 0,0 0,7.6 7.6,-1.5 0.4,0.5 1.9,8.1 6,1 z"
       stroke-miterlimit="10"
       stroke-linejoin="round"
       stroke-linecap="round"
       stroke-width="2"
       fill="#000000" />
    <g
       aria-label="GB"
       transform="matrix(1.80957,0,0,1.61896,-20.3987,-127.648)"
       id="svg_3"
       style="font-weight:bold;font-size:250px;font-family:'Trebuchet MS', Gadget, sans-serif;text-anchor:start;fill:#000000;stroke:#c916bd;stroke-width:0">
      <path
         d="m 198.28053,439.42838 q -17.57813,8.54492 -36.49903,12.81738 -18.92089,4.27246 -39.0625,4.27246 -45.532222,0 -72.14355,-25.39063 -26.611328,-25.51269 -26.611328,-69.09179 0,-44.06739 27.099609,-69.33594 27.09961,-25.26856 74.218749,-25.26856 18.18848,0 34.79004,3.41797 16.72363,3.41797 31.49414,10.13184 v 37.71973 q -15.25879,-8.667 -30.39551,-12.93946 -15.01465,-4.27246 -30.15136,-4.27246 -28.07618,0 -43.334965,15.74707 -15.136719,15.625 -15.136719,44.79981 0,28.93066 14.648438,44.67773 14.648436,15.74707 41.625976,15.74707 7.32422,0 13.5498,-0.85449 6.34766,-0.97656 11.35254,-2.92969 v -35.40039 h -28.68652 v -31.49414 h 73.24219 z"
         style="font-weight:bold;font-size:250px;font-family:'Trebuchet MS', Gadget, sans-serif;text-anchor:start;fill:#000000;stroke:#c916bd;stroke-width:0"
         id="path23" />
      <path
         d="m 292.76627,341.28384 q 11.1084,0 16.8457,-4.88281 5.73731,-4.88281 5.73731,-14.4043 0,-9.39941 -5.73731,-14.28222 -5.7373,-5.00488 -16.8457,-5.00488 h -26.00098 v 38.57421 z m 1.58691,79.71192 q 14.16016,0 21.24024,-5.98145 7.20215,-5.98144 7.20215,-18.0664 0,-11.84082 -7.08008,-17.7002 -7.08008,-5.98144 -21.36231,-5.98144 h -27.58789 v 47.72949 z M 338.05436,355.444 q 15.13672,4.39453 23.4375,16.23535 8.30078,11.84082 8.30078,29.05274 0,26.36718 -17.82227,39.30664 -17.82226,12.93945 -54.19922,12.93945 H 219.76822 V 270.7272 h 70.55664 q 37.96387,0 54.93165,11.47461 17.08984,11.47461 17.08984,36.74317 0,13.30566 -6.22559,22.70507 -6.22558,9.27735 -18.0664,13.79395 z"
         style="font-weight:bold;font-size:250px;font-family:'Trebuchet MS', Gadget, sans-serif;text-anchor:start;fill:#000000;stroke:#c916bd;stroke-width:0"
         id="path25" />
    </g>
    <g
       aria-label="C"
       transform="matrix(1.83406,0,0,1.62481,86.93982,-434.859)"
       id="svg_4"
       style="font-weight:bold;font-size:250px;font-family:'Trebuchet MS', Gadget, sans-serif;text-anchor:start;fill:#4e4ba8;stroke:#000000;stroke-width:0">
      <path
         d="m 473.09454,631.10046 q -12.93945,6.71387 -26.97754,10.13184 -14.03808,3.41797 -29.29687,3.41797 -45.53223,0 -72.14356,-25.39063 -26.61132,-25.51269 -26.61132,-69.09179 0,-43.70118 26.61132,-69.0918 26.61133,-25.5127 72.14356,-25.5127 15.25879,0 29.29687,3.41797 14.03809,3.41797 26.97754,10.13184 v 37.71973 q -13.06152,-8.91114 -25.75683,-13.06153 -12.69531,-4.15039 -26.7334,-4.15039 -25.14649,0 -39.55078,16.11328 -14.4043,16.11328 -14.4043,44.4336 0,28.19824 14.4043,44.31152 14.40429,16.11328 39.55078,16.11328 14.03809,0 26.7334,-4.15039 12.69531,-4.15039 25.75683,-13.06152 z"
         style="font-weight:bold;font-size:250px;font-family:'Trebuchet MS', Gadget, sans-serif;text-anchor:start;fill:#4e4ba8;stroke:#000000;stroke-width:0"
         id="path28" />
    </g>
  </g>
</svg>
